<svg width="30" height="26" viewBox="0 0 30 26" fill="none" xmlns="http://www.w3.org/2000/svg">
<path d="M28.1875 8.58491H29.9062L30 8.49292V-3.71936e-05L29.9062 6.65924e-05L26.4375 0H24.5V1.7783L21.1875 1.83962V3.43396H17.625V4.93632L17.5312 5.0283H14.1875V6.8066L10.5625 6.74528V8.58491H6.9375V10.4245H3.5625V12.0802H0V13.7972H3.5625V15.5755C3.60813 15.592 3.6375 15.5141 3.65625 15.5141H10.4687C10.4875 15.5141 10.5169 15.592 10.5625 15.5755V13.7359H12.4375V12.1415H14.125V10.3632L17.6875 10.3019V8.58491L19.4375 8.52359V6.8066H21.1875V5.08962H22.9375V8.58491H21.0625V10.3019H19.5312C19.5106 10.3019 19.4362 10.3828 19.375 10.3632V12.0802H17.625V13.7052C17.5381 13.8444 17.4906 13.7359 17.4688 13.7359H15.875V15.5141H14.1875V17.2925H12.5625V24.2217H14.1875V20.8491H17.6875V22.5047H19.2188C19.2381 22.5047 19.3075 22.4207 19.375 22.4434V24.2217H22.75V26L26.4375 25.9387V17.3538H28.1875V8.58491Z" fill="#0000FF"/>
</svg>
