<svg width="24" height="24" viewBox="0 0 24 24" fill="none" xmlns="http://www.w3.org/2000/svg">
<path d="M15.9759 0V1.01205H18V2.0241H20.0241V3.03614L21.0361 2.96386V3.9759H21.9759V6H22.988V8.0241H24V15.9759H22.988V18H21.9759V20.0241H21.0354V20.9639H20.0234V21.9759H17.9993V22.988H15.9752V24H8.02337V22.988H5.99928V21.9759H3.97518V20.9639H3.0347V20.0241H2.02265V18H1.0106V15.9759H0V8.0241H1.01205V6H2.0241V3.9759H3.03614V3.03542H3.9759V2.02337H6V1.01133H8.0241V0H15.9759ZM12 12C11.9978 12.3361 12.0014 12.6759 12 13.012H10.988V14.0241H9.9759V15.0361H10.988V15.9759H12V16.988H14.0241V19H15.9759V15.9759H16.988V10.0361H18V7.01205H15.9759V8.0241H13.012V9.03614H10.988V9.9759H9.03614V10.988H6V12H4.98795V13.012H6V14.0241H9.03614V13.012H9.9759V12C10.6496 11.9949 11.3263 12.0065 12 12C12.0022 11.6631 11.9986 11.3241 12 10.9872C12.3369 10.9865 12.6759 10.9894 13.0128 10.9872C13.0149 10.6511 13.0113 10.3113 13.0128 9.97518H14.0248V10.9872C13.6887 10.9887 13.3489 10.9851 13.0128 10.9872C13.0106 11.3241 13.0142 11.6631 13.0128 12C12.6766 12.0022 12.3369 11.9964 12 12Z" fill="black"/>
</svg>
