<svg width="11" height="11" viewBox="0 0 11 11" fill="none" xmlns="http://www.w3.org/2000/svg">
<path d="M6.00098 11H5.00098V10H5.99902V9H6.99902V10H6.00098V11ZM5.00098 10H4.00098V9H5.00098V10ZM4.00098 9.00098H3.00098V8.00098H4.00098V9.00098ZM7.99902 9.00098H6.99902V8.00098H7.99902V9.00098ZM3.00098 8H2.00098V7H3.00098V8ZM6.00098 8H5.00098V7H6.00098V8ZM8.99902 8H7.99902V7H8.99902V8ZM2 7H1V6H2V7ZM10 7H9V6H10V7ZM1 6H0V5H1V6ZM11 6H10V5H11V6ZM6.00098 5.99902H5.00098V2.99902H6.00098V5.99902ZM2 5H1V4H2V5ZM10 5H9V4H10V5ZM3.00098 3.99902H2.00098V2.99902H3.00098V3.99902ZM8.99902 3.99902H7.99902V2.99902H8.99902V3.99902ZM4.00098 3H3.00098V2H4.00098V3ZM7.99902 3H6.99902V2H7.99902V3ZM6.00098 1H6.99902V2H5.99902V1H5.00098V2H4.00098V1H5.00098V0H6.00098V1Z" fill="black"/>
</svg>
