<svg width="666" height="337" viewBox="0 0 666 337" fill="none" xmlns="http://www.w3.org/2000/svg">
<path d="M495.277 3.87109H506.892V7.74316H514.635V3.87109H537.849V7.74316H545.591V15.4854H549.463V96.7119H545.591V100.584H541.72V104.455H514.635V100.584H510.763V96.7119H506.892V92.8408H503.021V77.3701H499.148V69.627H495.277V61.8838H491.406V58.0127H487.534V54.1416H483.663V50.2695H472.049V46.3984H468.383L468.178 50.2695H460.435V54.1416H456.563V58.0127H452.691V65.7559H448.82V73.498H444.949V104.44L441.077 104.646V108.312H444.949V135.382H448.82V143.125H452.691V150.868H456.563V154.739H460.435V158.61H472.049L472.254 162.482H475.92V158.61H487.534V154.739H491.406V150.868H499.148V143.125H503.021V135.382H506.892V127.64H510.763V119.896H514.635V116.025H526.249V112.153H533.991V116.025H549.463V119.896H553.334V135.367H561.077V131.496H603.633V135.367H611.376V139.239H622.99V135.367H630.733V131.496H646.204V135.367H653.947V139.239H657.818V228.193H653.947V232.065H622.99V228.193H619.119V224.322H615.247V216.579H611.376V204.979H607.505V193.38H603.633V189.509H599.762V185.638H592.019V181.766H584.276V177.895H576.533V181.766H568.79V189.509H564.919V193.38H561.048V201.108H557.176V204.979H553.305V266.864H557.176V274.606H561.048V282.35H564.919V286.221H568.79V290.093H584.262L584.467 293.964H588.133V290.093H599.747V286.221H603.618V282.35H607.49V278.479H611.361V270.735H615.232V262.992H619.104V247.521H622.976V243.65H634.59V239.778H642.333V243.65H653.947V247.521H657.818V251.393H661.689V259.136H665.562V278.479H661.689V290.078H657.818V297.82H653.947V301.692H650.075V313.292H646.204V317.163H642.333V321.034H638.461V324.906H634.59V328.777H622.976V332.648H619.104V336.521H549.463V332.648H541.72V328.777H533.977V324.906H526.234V321.034H518.491V317.163H514.62V313.292H510.748V309.42H506.877V305.549H503.006V293.949H499.134V286.206H495.263V282.335H491.392V208.852H456.563V204.979H452.691V201.108H429.478V197.237H421.735V193.365H413.992V189.494H410.121V181.751H402.378V185.623H398.507V189.494H359.808V201.094H355.936V204.965H359.808V208.837H363.679V212.708H367.55V216.579H371.422V224.308H375.293V232.051H379.164V235.922H410.121V239.793H413.992V293.949H410.121V297.82H406.249V301.692H402.378V305.563H398.507V309.435H394.635V313.307H390.764V317.178H340.465V313.307H336.594V309.435H332.722V305.563H328.851V313.307H324.979V317.178H232.109V313.307H228.237V309.435H224.366V301.692H220.495V305.563H216.623V309.435H212.752V313.307H208.881V317.178H158.581V313.307H154.71V309.435H150.839V305.563H146.967V297.82H143.096V293.949H139.225V259.136H127.61V263.007H7.74316V259.136H3.87109V255.265H0V224.322H3.87109V220.451H7.74316V216.579H23.2139V112.153H19.3428V108.282H15.4707V104.411H3.87109V96.668H0V73.4541H3.87109V69.583H7.74316V65.7119H139.298V69.583H147.04V73.4541H154.783V77.3262H158.654V85.0684H162.526V88.9404H166.397V92.8115H170.269V100.539H174.141V116.011H208.969V119.882H216.711V123.753H224.454V127.625H228.325V123.753H232.197V119.882H321.195V123.753H336.667V116.011H379.223V112.139H383.095V57.9834H382.938V54.7959H376.562V51.6084H373.375V48.4209H370.188V42.0459H367V29.2959H370.188V22.9209H373.375V19.7334H376.562V16.5459H395.688V19.7334H398.875V22.9209H402.062V26.1084H405.25V27.0264H406.323V23.1553H410.194V19.2842H421.809V15.4121H425.68V11.541H429.552V7.66992H437.294V3.79785H456.637V0H495.277V3.87109ZM456.71 11.5996H437.367V15.4707H433.496V19.3428H429.625V23.2139H425.753V27.085H414.153V30.957H410.282V34.8281H406.411V46.4277H402.539V50.2988H402.062V51.6084H398.875V54.7959H394.797V61.8984H390.925V123.783H340.626V127.654H336.755V135.397H329.012V146.996H325.141V150.868C323.85 150.868 322.559 150.853 321.269 150.868V177.938H317.397V189.538H313.526V193.409H301.912V197.281H298.04V158.596H301.912V154.725H305.783V150.854C310.93 150.81 316.107 150.927 321.269 150.854L321.166 150.839V127.625H232.168V150.839H247.639V154.71H251.51V158.581H255.382V201.123H251.51V197.252H243.768V193.38H236.024V181.78H232.153V154.71H228.281V150.839H224.41V143.11H220.539V131.511H216.667V127.64H205.053V123.768H166.354V100.555H162.482V96.6826H158.61V92.8115H154.739V88.9404H150.868V81.2119H143.125V77.3408H139.254V73.4688H11.5703V77.3408H7.69922V96.6826H19.3135V100.555H23.1846V104.426H30.9277V224.322H11.6143V228.193H7.74316V255.265H127.698V251.393H135.441V247.521H147.056V290.063H150.927V293.935H154.798V301.663H158.67V305.534H162.541V309.405H205.097V305.534H208.969V301.663H212.84V297.791H216.711V293.92H220.583V286.177H224.454V255.235H228.325V251.363H232.197V235.893H236.068V232.021H255.411V274.562H251.539V278.435H236.068V282.306H232.197V309.376H321.195V282.306H317.324V278.435H297.981V232.021H317.324V239.764H321.195V262.978H325.067V266.85H328.938V290.049H332.81V293.92H336.682V301.648H340.553V305.52H344.424V309.391H386.98V305.52H390.852V301.648H394.724V297.776H398.595V293.905H402.466V290.034H406.338V243.621H379.252V255.221H371.51V232.007H363.767V220.407H359.896V216.535H356.023V212.664H352.152V208.793H348.281V201.064H352.152V173.994H356.023V177.865H359.896V181.736H394.724V177.865H398.595V173.994H402.466V170.122H406.132L406.338 173.994H410.209V177.865H414.08V181.736H421.823V189.479H433.438V193.351H456.651V197.223H460.522V201.094H491.479V197.223H495.351V193.351H499.222V278.449H503.094V286.191H506.965V290.063H510.836V301.663H514.708V305.534H518.579V309.405H522.45V313.277H526.322V317.148H537.937V321.02H545.679V324.892H549.551V328.763H615.335V324.892H619.207V321.02H630.807V317.148H634.678V313.277H638.549V309.405H642.421V297.806H646.292V293.935H650.163V286.206H654.035V278.464H657.906V259.121H654.035V255.25H650.163V251.378H626.949V266.85H623.078V270.721H619.207V282.32H615.335V286.191H611.464V290.063H607.593V293.935H603.721V297.806H592.106V301.678H580.492V297.806H565.021V293.935H561.15V290.063H557.278V286.191H553.407V274.592H549.536V270.721H545.664V201.108H549.536V197.237H553.407V189.509H557.278V181.766H565.021V177.895H568.893V174.023H572.765V170.151H588.235V174.023H595.979V177.895H603.721V181.766H607.593V185.638H611.464V189.509H615.335V201.108H619.207V216.579H623.078V220.451H626.949V224.322H650.163V143.096H646.292V139.225H630.821V143.096H626.949V146.967H623.078V150.839H619.207V146.967H607.607V143.096H603.735V139.225H561.18V146.967H545.709V123.753H534.095V119.882H526.352V123.753H518.608V131.496H514.737V135.367H510.866V146.967H506.994V150.839H503.123V158.566H495.38V162.438H491.509V166.31H479.909V170.181H468.295V166.31H456.681V162.438H452.81V158.566H448.938V154.695H445.066V143.096H441.195V139.225H437.323V112.153H433.452V100.555H437.323V65.7412H445.066V54.1416H448.938V50.2695H452.81V46.3984H456.681V42.5273H468.295V38.6553H476.038V42.5273H487.652V46.3984H491.523V50.2695H499.267V58.0127H503.138V65.7559H507.009V73.498H510.881V88.9697H514.752V92.8408H518.623V96.7119H537.966V92.8408H541.837V15.4707H537.966V11.5996H514.752V15.4707H507.009V11.5996H491.538V7.72852H456.71V11.5996ZM603.618 154.71H607.504L607.489 158.581H619.104V162.452H626.847V158.581H630.718V150.839H638.446V158.581H642.317V220.465H638.446V216.594H630.718V201.123H626.847V189.523H619.104V177.924H615.232V174.052H611.36V170.181H603.633V166.31H595.89V162.452H584.275L584.07 158.581H580.404V162.452H568.805V166.31H561.062V170.181H553.318V177.924H549.447L549.462 181.795H545.591V189.523H541.719V204.994H537.848V212.737H533.977V259.15H537.848V270.75H541.719V286.221H545.591V293.949H549.462L549.447 297.82H553.318V301.691H557.19V305.563H564.933V309.42H607.489V305.563H611.36V301.691H615.232V297.82H619.104V293.949L622.975 293.964V290.092H626.847V282.35H630.718V270.75H634.574V263.007L638.446 263.021L638.651 259.136L642.317 259.15V263.021L646.188 263.007V274.621H642.317V286.221H638.446V297.82H630.718V305.563H626.847V309.42H619.104V313.291H615.232V317.163H603.633V321.034H561.062V317.163H549.447L549.462 313.291H545.576L545.591 309.42H533.977V305.563H530.104V297.82H522.362V290.092H518.49L518.505 286.221H514.634V278.478H510.763V263.007H506.891V251.407H503.02V224.337H506.891V212.737H510.763V197.266H514.634V189.523H518.505L518.49 185.651H522.362V177.924H530.104V170.181H533.977V166.31H541.719V158.581H553.318V154.71H561.062V150.839H603.633L603.618 154.71ZM189.597 131.511H197.34V135.368H205.082V139.239H212.811V150.839H216.682V154.71H220.554V181.796H224.425V193.396H228.296V197.267L232.168 197.252V201.123H236.039V204.995H263.124V146.982H239.896V135.368H313.423V143.11H309.552V146.982H290.21V154.71H286.338V204.995H317.295V201.123H321.166L321.151 197.252L325.037 197.267L325.022 193.396H328.895V170.182H332.766V154.71H336.637V146.982H340.509V139.239H348.251V135.368H355.979V131.511H363.723V127.64H371.465V131.511H379.208V135.368H386.937V139.239H390.808V143.11H394.679V166.31H390.808V170.182H383.064V174.053H371.465V170.182H363.723V162.453H359.851V154.71H363.723V143.11H359.851V146.982H352.108L352.123 150.854L348.251 150.839V170.182H344.38V181.796H340.509V201.123H336.637V204.995H332.766V208.866H328.895V212.737H336.637V216.595H340.509V220.466H348.251V224.337H352.108V232.065H355.979V235.937H359.851V247.536H363.723V266.879H367.594V274.621H371.465V278.479H383.064V259.15H386.937V255.279H402.422V266.879H398.551V274.621H394.679V286.221H390.808V293.949H386.937V297.82H375.337V301.692H359.851V297.82H348.251V290.093H344.38V286.221H340.509V274.621H336.637V259.15H332.766V243.68H328.895V228.209H325.022V224.337H317.295V220.466H290.21V224.337H286.338V278.479H290.21V286.221H309.552V290.093H313.423V297.82H239.896V286.221H263.124V220.466H232.168V224.337H228.296V228.209H224.425V239.808H220.554V266.879H216.682V270.75H212.811V286.221H208.954V293.949H201.211V297.82H193.468V301.692H177.997V297.82H166.383V293.949L162.512 293.964V290.093H158.64V278.479H154.783V255.279H166.383V270.75H170.254V278.479H181.868L181.854 274.621H185.726V266.879H189.597V243.68H193.468V235.937H197.34V232.065H201.211V224.337H205.082V220.466H212.811V212.737H224.425V208.866H220.554V201.123H212.811V189.523H208.954V162.453H205.082V154.71H201.211V146.982H193.468V143.11H189.597V170.182H181.868V174.053H170.254V170.182H158.64V139.239H166.383V135.368H174.126V131.511H181.868V127.64H189.597V131.511ZM437.251 266.878C439.832 266.907 442.412 266.849 444.993 266.878V270.75C450.14 270.779 455.318 270.735 460.479 270.75V274.621H444.993V270.75H437.251V266.878C435.961 266.863 434.669 266.878 433.379 266.878C433.379 266.233 433.383 265.588 433.385 264.942L433.379 263.007H437.251V266.878ZM239.896 255.279H236.024V259.15H232.153V270.75H247.624V239.808H239.896V255.279ZM305.681 270.75H317.295V263.007H313.424V243.665H309.552V239.793H305.681V270.75ZM444.978 232.08H456.592V235.937C457.325 235.937 464.333 235.556 464.335 235.937V247.536H460.464V255.279H468.206V263.008C469.492 263.008 470.778 263.022 472.063 263.008C472.049 264.298 472.063 265.589 472.063 266.879H468.191C468.177 268.169 468.191 269.46 468.191 270.75H464.32V266.879H468.191C468.206 265.593 468.192 264.307 468.191 263.021C464.34 263.036 460.458 263.021 456.592 263.021V251.422H448.85V259.165H452.721V263.036H441.106V259.165H444.978V235.951H441.106V232.08H437.235V235.951H433.363C433.305 239.808 433.407 243.694 433.363 247.551H429.492V235.951H433.363C433.378 234.661 433.363 233.37 433.363 232.08H437.235V228.209H444.978V232.08ZM475.935 263.021C474.644 263.021 473.354 263.007 472.063 263.021C472.093 260.455 472.034 257.86 472.063 255.279C473.354 255.279 474.645 255.278 475.936 255.278C475.936 257.859 475.935 260.441 475.935 263.021ZM433.379 251.407C433.423 255.264 433.32 259.15 433.379 263.007H429.508V251.407H433.379ZM479.807 255.278H475.936C475.95 251.422 475.95 247.536 475.936 243.68H479.807V255.278ZM201.21 204.995H205.081V208.866H201.21V212.737H197.338V216.609H193.467V220.48H189.596V224.352H185.724V232.08H181.853V251.423H177.981V247.551H174.109V243.68H158.639V235.937H162.51V232.065H166.382V228.194H170.253V181.781H193.467V177.909H197.338V174.038H201.21V204.995ZM448.85 247.551H456.592V243.68H460.464V240.014L456.592 239.808V235.951H448.85V247.551ZM119.953 85.0977H135.424V88.9697H139.295V92.8408H147.038V104.44H154.781V135.383H150.909V139.254H147.038V146.982H143.167V150.854H135.424V158.597H127.681V162.468H135.424V166.339H147.038V170.211H150.909V174.082H154.781V177.953H158.652V185.696H162.523V193.439H166.396V208.91H162.523V212.781H158.652V224.381H154.781V228.252H150.909V232.124H147.038V235.995H139.295V239.867H135.424V243.738H19.3398V235.995H30.9541V232.124H42.5684V96.7559H38.6973V92.8848H19.3545V81.2852H119.953V85.0977ZM468.207 232.065H472.062C472.062 233.356 472.048 234.646 472.062 235.937H475.934V243.68H472.062C472.032 241.113 472.106 238.517 472.062 235.937H468.191V232.08H464.336V228.209C465.626 228.224 466.917 228.209 468.207 228.209V232.065ZM69.6387 232.065H77.3818V235.937H96.7246V232.065H119.938V228.193H123.81V224.322H127.681V220.451H131.553V216.579H135.424V181.766H127.681V174.023H123.81V170.151H108.339V166.31H69.6387V232.065ZM464.319 228.208C457.882 228.12 451.414 228.179 444.977 228.208V224.337H464.319V228.208ZM112.213 181.795H123.827V193.395H127.699V201.138H123.827V212.737H119.956V216.608H116.085V220.48H112.213V224.352H77.3848V220.48H73.5137V177.938H112.213V181.795ZM193.467 189.523H177.996V220.466H181.867V216.595H185.738V212.723H189.61V208.852H193.481V189.509L193.467 189.523ZM81.2568 216.594H108.342V212.723H112.213V208.852H116.085V189.509H108.342V185.652H81.2568V216.594ZM495.278 23.2139L499.149 23.1992V27.0703H506.893V30.9414H514.635V27.0703H518.507L518.492 23.1992L522.378 23.2139L522.363 19.3428H530.106V42.541H533.978V85.0977H522.363V73.4834H518.507V61.8838H514.635V58.0127H510.764V50.2842H506.893V42.541H499.149V38.6699L495.278 38.6846L495.293 34.8135H491.406L491.421 30.9414H452.722V34.8135H448.851V38.6846L444.979 38.6699V42.541H437.236V54.1553H433.379V65.7549H429.508V73.4834H425.637V139.239H429.508V146.981H433.379V158.581H437.251L437.236 162.453H441.107V166.324L444.979 166.31V170.181H452.722V174.053H456.593V177.924H491.421V174.053H499.149V170.181H506.893V166.31H510.764V158.581H518.507V150.839H522.363V131.511H526.234V127.64H533.978V150.839H530.106V158.581H526.234V162.453H522.363V170.181H518.492L518.507 174.053H514.635V177.924H510.764V181.795H499.149V185.652H495.278V189.523H448.851V185.652H444.979V181.795H433.379V177.924H425.637V170.181H417.894V166.31H414.022V158.581H406.294V146.981H402.423V135.367H398.551V127.64H394.68V81.2266H398.551V73.4834H402.423V61.8838H406.294V54.1553H414.022V42.541H421.765V38.6699L425.637 38.6846V30.9414H437.236V27.0703H441.107V23.2139H448.851V19.3428H495.278V23.2139ZM239.896 181.795H243.768V185.667H247.639V162.453H243.768V158.581H239.896V181.795ZM309.552 162.453H305.681V185.652H309.552V174.053H313.424V158.581H309.552V162.453ZM73.5107 96.6973H69.6387V154.71H104.467V150.839H116.081V146.968H123.824V139.225H127.695V108.282H123.824V100.54H119.953V96.668H112.21V92.8262H73.5107V96.6973ZM88.999 104.425H112.213V108.297H116.085V135.367H112.213V139.238H108.342V143.11H104.471V146.981H73.5137V108.297H77.3848V104.425H85.1279L85.333 100.554H88.999V104.425ZM81.2568 139.238H100.599V135.367H104.471V131.496H108.342V112.168H81.2568V139.238ZM91.3496 19.458H94.5371V22.6455H97.7246V25.833H100.912V44.958H97.7246V51.333H94.5371V54.5205H84.9746V57.708H78.5996V54.5205H72.2246V51.333H69.0371V48.1455H65.8496V41.7705H62.6621V29.0205H65.8496V22.6455H69.0371V19.458H72.2246V16.2705H91.3496V19.458ZM261.85 19.458H265.037V22.6455H268.225V25.833H271.412V44.958H268.225V51.333H265.037V54.5205H255.475V57.708H249.1V54.5205H242.725V51.333H239.537V48.1455H236.35V41.7705H233.162V29.0205H236.35V22.6455H239.537V19.458H242.725V16.2705H261.85V19.458ZM317.225 22.6455H310.85V51.333H317.225V54.5205H298.1V51.333H304.475V22.6455H294.912V41.7705H291.725V51.333H288.537V54.5205H285.35V57.708H282.162V54.5205H275.787V51.333H272.6V48.1455H275.787V41.7705H282.162V44.958H288.537V22.6455H282.162V16.2705H317.225V22.6455ZM58.2871 22.6455H55.0996V51.333H58.2871V54.5205H39.1621V51.333H45.5371V22.6455H29.5996V51.333H35.9746V54.5205H16.8496V51.333H23.2246V22.6455H16.8496V16.2705H58.2871V22.6455ZM133.975 19.458H137.162V22.6455H140.35V32.208H137.162V35.3955H133.975V38.583H118.037V51.333H124.412V54.5205H105.287V51.333H111.662V22.6455H105.287V16.2705H133.975V19.458ZM179.787 32.208H173.412V22.6455H167.037V51.333H170.225V54.5205H151.1V51.333H157.475V22.6455H151.1V29.0205H147.912V32.208H144.725V16.2705H179.787V32.208ZM216.037 22.6455H219.225V25.833H225.6V29.0205H228.787V41.7705H225.6V44.958H222.412V48.1455H216.037V54.5205H196.912V48.1455H190.537V44.958H184.162V29.0205H187.35V25.833H190.537V22.6455H196.912V16.2705H216.037V22.6455ZM340.725 22.6455H334.35V41.7705H337.537V35.3955H340.725V32.208H343.912V29.0205H347.1V19.458H343.912V16.2705H363.037V22.6455H359.85V51.333H363.037V54.5205H343.912V51.333H350.287V32.208H347.1V38.583H343.912V41.7705H340.725V44.958H337.537V51.333H340.725V54.5205H321.6V51.333H327.975V22.6455H321.6V16.2705H340.725V22.6455ZM382.938 22.9209H379.75V29.2959H376.562V45.2334H379.75V48.4209H382.938V51.6084H386.966V50.2402H390.837V46.3691H394.709V42.498H395.688V26.1084H392.5V22.9209H389.312V19.7334H382.938V22.9209ZM78.5996 22.6455H75.4121V29.0205H72.2246V44.958H75.4121V48.1455H78.5996V51.333H88.1621V48.1455H91.3496V25.833H88.1621V22.6455H84.9746V19.458H78.5996V22.6455ZM249.1 22.6455H245.912V29.0205H242.725V44.958H245.912V48.1455H249.1V51.333H258.662V48.1455H261.85V25.833H258.662V22.6455H255.475V19.458H249.1V22.6455ZM200.1 29.0205H193.725V41.7705H196.912V44.958H203.287V25.833H200.1V29.0205ZM209.662 44.958H216.037V41.7705H219.225V29.0205H212.85V25.833H209.662V44.958ZM118.037 35.3955H127.6V32.208H130.787V22.6455H118.037V35.3955Z" fill="black"/>
</svg>
